# Blender v2.79 (sub 0) OBJ File: 'curve.blend'
# www.blender.org
mtllib curve.mtl
o Circle
v 5.024735 -3.867440 0.000906
v 4.928407 -3.867439 0.978949
v 4.643122 -3.867440 1.919406
v 4.179848 -3.867439 2.786138
v 3.556381 -3.867440 3.545833
v 2.796686 -3.867440 4.169300
v 1.929957 -3.867440 4.632577
v 0.989497 -3.867440 4.917861
v 0.011456 -3.867440 5.014192
v 4.991582 -3.879106 0.491406
v 4.800200 -3.879107 1.453557
v 4.424789 -3.879109 2.359883
v 3.879775 -3.879111 3.175556
v 3.186105 -3.879116 3.869229
v 2.370434 -3.879121 4.414245
v 1.464107 -3.879127 4.789659
v 0.501956 -3.879133 4.981045
v 5.759752 -3.866632 -0.000989
v 5.649263 -3.866632 1.120843
v 5.322036 -3.866632 2.199563
v 4.790652 -3.866632 3.193719
v 4.075525 -3.866632 4.065102
v 3.204143 -3.866632 4.780228
v 2.209990 -3.866632 5.311615
v 1.131267 -3.866632 5.638841
v 0.009437 -3.866632 5.749333
v 5.721725 -3.880013 0.561623
v 5.502206 -3.880014 1.665226
v 5.071604 -3.880016 2.704798
v 4.446465 -3.880019 3.640388
v 3.650813 -3.880025 4.436042
v 2.715224 -3.880030 5.061185
v 1.675653 -3.880038 5.491791
v 0.572049 -3.880044 5.711315
v 5.024735 -3.091149 0.000906
v 4.928407 -3.091148 0.978949
v 4.643122 -3.091149 1.919406
v 4.179848 -3.091148 2.786138
v 3.556381 -3.091149 3.545833
v 2.796686 -3.091149 4.169300
v 1.929957 -3.091149 4.632577
v 0.989497 -3.091149 4.917861
v 0.011456 -3.091149 5.014192
v 4.991582 -3.102815 0.491406
v 4.800200 -3.102816 1.453557
v 4.424789 -3.102818 2.359883
v 3.879775 -3.102820 3.175556
v 3.186105 -3.102825 3.869229
v 2.370434 -3.102830 4.414245
v 1.464107 -3.102836 4.789659
v 0.501956 -3.102842 4.981045
v 5.759752 -3.090341 -0.000989
v 5.649263 -3.090341 1.120843
v 5.322036 -3.090341 2.199563
v 4.790652 -3.090341 3.193719
v 4.075525 -3.090341 4.065102
v 3.204143 -3.090341 4.780228
v 2.209990 -3.090341 5.311615
v 1.131267 -3.090341 5.638841
v 0.009437 -3.090341 5.749333
v 5.721725 -3.103722 0.561623
v 5.502206 -3.103723 1.665226
v 5.071604 -3.103725 2.704798
v 4.446465 -3.103728 3.640388
v 3.650813 -3.103734 4.436042
v 2.715224 -3.103740 5.061185
v 1.675653 -3.103747 5.491791
v 0.572049 -3.103753 5.711315
vt 0.000000 0.000000
vt 1.000000 0.000000
vt 1.000000 1.000000
vt 0.000000 1.000000
vt 0.000000 0.000000
vt 1.000000 0.000000
vt 1.000000 1.000000
vt 0.000000 1.000000
vt 0.000000 0.000000
vt 1.000000 0.000000
vt 1.000000 1.000000
vt 0.000000 1.000000
vt 0.000000 0.000000
vt 1.000000 0.000000
vt 1.000000 1.000000
vt 0.000000 1.000000
vt 0.000000 0.000000
vt 1.000000 0.000000
vt 1.000000 1.000000
vt 0.000000 1.000000
vt 0.000000 0.000000
vt 1.000000 0.000000
vt 1.000000 1.000000
vt 0.000000 1.000000
vt 0.000000 0.000000
vt 1.000000 0.000000
vt 1.000000 1.000000
vt 0.000000 1.000000
vt 0.000000 0.000000
vt 1.000000 0.000000
vt 1.000000 1.000000
vt 0.000000 1.000000
vt 0.000000 0.000000
vt 1.000000 0.000000
vt 1.000000 1.000000
vt 0.000000 1.000000
vt 0.000000 0.000000
vt 1.000000 0.000000
vt 1.000000 1.000000
vt 0.000000 1.000000
vt 0.000000 0.000000
vt 1.000000 0.000000
vt 1.000000 1.000000
vt 0.000000 1.000000
vt 0.000000 0.000000
vt 1.000000 0.000000
vt 1.000000 1.000000
vt 0.000000 1.000000
vt 0.000000 0.000000
vt 1.000000 0.000000
vt 1.000000 1.000000
vt 0.000000 1.000000
vt 0.000000 0.000000
vt 1.000000 0.000000
vt 1.000000 1.000000
vt 0.000000 1.000000
vt 0.000000 0.000000
vt 1.000000 0.000000
vt 1.000000 1.000000
vt 0.000000 1.000000
vt 0.000000 0.000000
vt 1.000000 0.000000
vt 1.000000 1.000000
vt 0.000000 1.000000
vt 0.000000 0.000000
vt 1.000000 0.000000
vt 1.000000 1.000000
vt 0.000000 1.000000
vt 0.000000 0.000000
vt 1.000000 0.000000
vt 1.000000 1.000000
vt 0.000000 1.000000
vt 0.000000 0.000000
vt 1.000000 0.000000
vt 1.000000 1.000000
vt 0.000000 1.000000
vt 0.000000 0.000000
vt 1.000000 0.000000
vt 1.000000 1.000000
vt 0.000000 1.000000
vt 0.000000 0.000000
vt 1.000000 0.000000
vt 1.000000 1.000000
vt 0.000000 1.000000
vt 0.000000 0.000000
vt 1.000000 0.000000
vt 1.000000 1.000000
vt 0.000000 1.000000
vt 0.000000 0.000000
vt 1.000000 0.000000
vt 1.000000 1.000000
vt 0.000000 1.000000
vt 0.000000 0.000000
vt 1.000000 0.000000
vt 1.000000 1.000000
vt 0.000000 1.000000
vt 0.000000 0.000000
vt 1.000000 0.000000
vt 1.000000 1.000000
vt 0.000000 1.000000
vt 0.000000 0.000000
vt 1.000000 0.000000
vt 1.000000 1.000000
vt 0.000000 1.000000
vt 0.000000 0.000000
vt 1.000000 0.000000
vt 1.000000 1.000000
vt 0.000000 1.000000
vt 0.000000 0.000000
vt 1.000000 0.000000
vt 1.000000 1.000000
vt 0.000000 1.000000
vt 0.000000 0.000000
vt 1.000000 0.000000
vt 1.000000 1.000000
vt 0.000000 1.000000
vt 0.000000 0.000000
vt 1.000000 0.000000
vt 1.000000 1.000000
vt 0.000000 1.000000
vt 0.000000 0.000000
vt 1.000000 0.000000
vt 1.000000 1.000000
vt 0.000000 1.000000
vt 0.000000 0.000000
vt 1.000000 0.000000
vt 1.000000 1.000000
vt 0.000000 1.000000
vt 1.000000 0.000000
vt 1.000000 1.000000
vt 0.000000 1.000000
vt 1.000000 0.000000
vt 1.000000 1.000000
vt 0.000000 1.000000
vt 0.000000 0.000000
vt 1.000000 0.000000
vt 1.000000 1.000000
vt 0.000000 1.000000
vt 1.000000 0.000000
vt 1.000000 1.000000
vt 0.000000 1.000000
vt 0.000000 0.000000
vt 1.000000 0.000000
vt 1.000000 1.000000
vt 0.000000 1.000000
vt 1.000000 0.000000
vt 1.000000 1.000000
vt 0.000000 1.000000
vt 0.000000 0.000000
vt 0.000000 0.000000
vt 1.000000 0.000000
vt 1.000000 1.000000
vt 0.000000 1.000000
vt 0.000000 0.000000
vt 0.000000 0.000000
vt 1.000000 0.000000
vt 1.000000 1.000000
vt 0.000000 1.000000
vt 0.000000 0.000000
vt 0.000000 0.000000
vt 1.000000 0.000000
vt 1.000000 1.000000
vt 0.000000 1.000000
vt 0.000000 0.000000
vt 1.000000 0.000000
vt 1.000000 1.000000
vt 0.000000 1.000000
vt 0.000000 0.000000
vt 1.000000 0.000000
vt 1.000000 1.000000
vt 0.000000 1.000000
vt 0.000000 0.000000
vt 1.000000 0.000000
vt 0.000000 1.000000
vt 0.000000 0.000000
vt 1.000000 0.000000
vt 1.000000 1.000000
vt 0.000000 1.000000
vt 0.000000 0.000000
vt 1.000000 0.000000
vt 1.000000 1.000000
vt 0.000000 1.000000
vt 0.000000 0.000000
vt 0.000000 1.000000
vt 1.000000 0.000000
vt 1.000000 1.000000
vt 0.000000 1.000000
vt 0.000000 0.000000
vt 1.000000 1.000000
vt 1.000000 0.000000
vt 1.000000 1.000000
vt 0.000000 1.000000
vt 0.000000 0.000000
vt 1.000000 0.000000
vt 1.000000 1.000000
vt 0.000000 1.000000
vt 0.000000 0.000000
vt 1.000000 0.000000
vt 1.000000 1.000000
vt 0.000000 0.000000
vn 0.0224 -0.9997 -0.0080
vn -0.0238 -0.9997 0.0010
vn -0.0035 -0.9997 0.0235
vn 0.0235 -0.9997 -0.0035
vn 0.0010 -0.9997 -0.0237
vn -0.0080 -0.9997 0.0223
vn 0.0057 -0.9997 -0.0230
vn -0.0122 -0.9997 0.0203
vn 0.0101 -0.9997 -0.0215
vn -0.0160 -0.9997 0.0175
vn 0.0141 -0.9997 -0.0191
vn -0.0191 -0.9997 0.0141
vn 0.0176 -0.9997 -0.0160
vn -0.0215 -0.9997 0.0101
vn 0.0204 -0.9997 -0.0123
vn -0.0231 -0.9997 0.0057
vn -0.0224 0.9997 0.0080
vn 0.0238 0.9997 -0.0010
vn 0.0035 0.9997 -0.0235
vn -0.0235 0.9997 0.0035
vn -0.0010 0.9997 0.0237
vn 0.0080 0.9997 -0.0223
vn -0.0057 0.9997 0.0230
vn 0.0122 0.9997 -0.0203
vn -0.0101 0.9997 0.0215
vn 0.0160 0.9997 -0.0175
vn -0.0141 0.9997 0.0191
vn 0.0191 0.9997 -0.0141
vn -0.0176 0.9997 0.0160
vn 0.0215 0.9997 -0.0101
vn -0.0204 0.9997 0.0123
vn 0.0231 0.9997 -0.0057
vn -0.4982 0.0000 -0.8670
vn -0.9917 0.0000 -0.1285
vn 0.7921 0.0000 0.6104
vn -0.3195 0.0000 -0.9476
vn -0.9476 0.0000 -0.3195
vn 0.6578 0.0000 0.7532
vn -0.1285 0.0000 -0.9917
vn -0.8670 0.0000 -0.4982
vn 0.4982 0.0000 0.8670
vn 0.9917 0.0000 0.1285
vn -0.7532 0.0000 -0.6578
vn 0.3195 0.0000 0.9476
vn 0.9476 0.0000 0.3195
vn -0.6104 0.0000 -0.7921
vn 0.1285 0.0000 0.9917
vn 0.8670 0.0000 0.4982
vn -0.4441 0.0000 -0.8960
vn 0.7532 0.0000 0.6578
vn -0.2608 0.0000 -0.9654
vn 0.6104 0.0000 0.7921
vn -0.0674 0.0000 -0.9977
vn -1.0000 0.0000 -0.0027
vn 0.4441 0.0000 0.8960
vn -0.9977 0.0000 -0.0674
vn 0.2608 0.0000 0.9654
vn -0.9654 0.0000 -0.2608
vn 0.0674 0.0000 0.9977
vn -0.8960 0.0000 -0.4441
vn 0.9977 0.0000 0.0674
vn -0.7921 0.0000 -0.6104
vn 0.9654 0.0000 0.2608
vn -0.6578 0.0000 -0.7532
vn -0.0026 0.0000 -1.0000
vn 0.8960 0.0000 0.4441
usemtl Material.001
s off
f 7/1/1 24/2/1 33/3/1 16/4/1
f 17/5/2 34/6/2 26/7/2 9/8/2
f 10/9/3 27/10/3 19/11/3 2/12/3
f 8/13/4 25/14/4 34/15/4 17/16/4
f 1/17/5 18/18/5 27/19/5 10/20/5
f 11/21/6 28/22/6 20/23/6 3/24/6
f 2/25/7 19/26/7 28/27/7 11/28/7
f 12/29/8 29/30/8 21/31/8 4/32/8
f 3/33/9 20/34/9 29/35/9 12/36/9
f 13/37/10 30/38/10 22/39/10 5/40/10
f 4/41/11 21/42/11 30/43/11 13/44/11
f 14/45/12 31/46/12 23/47/12 6/48/12
f 5/49/13 22/50/13 31/51/13 14/52/13
f 15/53/14 32/54/14 24/55/14 7/56/14
f 6/57/15 23/58/15 32/59/15 15/60/15
f 16/61/16 33/62/16 25/63/16 8/64/16
f 41/65/17 50/66/17 67/67/17 58/68/17
f 51/69/18 43/70/18 60/71/18 68/72/18
f 44/73/19 36/74/19 53/75/19 61/76/19
f 42/77/20 51/78/20 68/79/20 59/80/20
f 35/81/21 44/82/21 61/83/21 52/84/21
f 45/85/22 37/86/22 54/87/22 62/88/22
f 36/89/23 45/90/23 62/91/23 53/92/23
f 46/93/24 38/94/24 55/95/24 63/96/24
f 37/97/25 46/98/25 63/99/25 54/100/25
f 47/101/26 39/102/26 56/103/26 64/104/26
f 38/105/27 47/106/27 64/107/27 55/108/27
f 48/109/28 40/110/28 57/111/28 65/112/28
f 39/113/29 48/114/29 65/115/29 56/116/29
f 49/117/30 41/118/30 58/119/30 66/120/30
f 40/121/31 49/122/31 66/123/31 57/124/31
f 50/125/32 42/126/32 59/127/32 67/128/32
f 6/57/33 15/129/33 49/130/33 40/131/33
f 10/9/34 2/132/34 36/133/34 44/134/34
f 30/135/35 21/42/35 55/95/35 64/104/35
f 7/1/36 16/136/36 50/137/36 41/138/36
f 11/21/37 3/139/37 37/140/37 45/141/37
f 31/142/38 22/50/38 56/103/38 65/112/38
f 8/13/39 17/143/39 51/144/39 42/145/39
f 12/29/40 4/146/40 38/147/40 46/148/40
f 32/149/41 23/58/41 57/111/41 66/120/41
f 19/150/42 27/10/42 61/83/42 53/92/42
f 13/37/43 5/151/43 39/152/43 47/153/43
f 33/154/44 24/2/44 58/119/44 67/128/44
f 20/155/45 28/22/45 62/91/45 54/100/45
f 14/45/46 6/156/46 40/157/46 48/158/46
f 34/159/47 25/14/47 59/127/47 68/72/47
f 21/160/48 29/30/48 63/99/48 55/108/48
f 15/53/49 7/161/49 41/162/49 49/163/49
f 22/164/50 30/38/50 64/107/50 56/116/50
f 16/61/51 8/165/51 42/166/51 50/167/51
f 23/168/52 31/46/52 65/115/52 57/124/52
f 17/5/53 9/169/53 43/170/53 51/171/53
f 9/172/54 26/173/54 60/71/54 43/174/54
f 24/175/55 32/54/55 66/123/55 58/68/55
f 1/17/56 10/176/56 44/177/56 35/178/56
f 25/179/57 33/62/57 67/67/57 59/80/57
f 2/25/58 11/180/58 45/181/58 36/182/58
f 26/183/59 34/6/59 68/79/59 60/184/59
f 3/33/60 12/185/60 46/186/60 37/187/60
f 27/188/61 18/18/61 52/189/61 61/76/61
f 4/41/62 13/190/62 47/191/62 38/192/62
f 28/193/63 19/26/63 53/75/63 62/88/63
f 5/49/64 14/194/64 48/195/64 39/196/64
f 18/197/65 1/198/65 35/199/65 52/84/65
f 29/200/66 20/34/66 54/87/66 63/96/66
